<svg width="160" height="40" fill="none" xmlns="http://www.w3.org/2000/svg"><path d="M25.827 27.349c-1.28-.572-2.285-1.382-3.015-2.433-.732-1.051-1.095-2.276-1.095-3.67h4.18c.09 1.047.496 1.911 1.215 2.588.72.677 1.729 1.014 3.03 1.014 1.35 0 2.399-.33 3.151-.997.753-.663 1.13-1.52 1.13-2.572 0-.816-.234-1.48-.703-1.993a4.686 4.686 0 00-1.745-1.191c-.697-.282-1.662-.585-2.895-.912-1.552-.418-2.814-.847-3.783-1.276-.973-.432-1.798-1.102-2.485-2.014-.686-.908-1.025-2.12-1.025-3.636 0-1.399.34-2.623 1.026-3.671.682-1.051 1.641-1.854 2.874-2.416 1.232-.554 2.66-.837 4.28-.837 2.304 0 4.196.589 5.668 1.77 1.472 1.177 2.288 2.793 2.448 4.844H33.77c-.067-.888-.48-1.647-1.233-2.276-.752-.63-1.745-.946-2.977-.946-1.12 0-2.032.293-2.738.875-.709.585-1.062 1.422-1.062 2.517 0 .745.223 1.357.67 1.837.442.48 1.009.857 1.695 1.14.686.279 1.622.582 2.807.908 1.575.446 2.858.888 3.853 1.33.993.446 1.839 1.127 2.535 2.049.696.921 1.042 2.153 1.042 3.687a6.711 6.711 0 01-.976 3.498c-.652 1.095-1.598 1.976-2.84 2.64-1.246.663-2.711.996-4.4.996-1.605 0-3.044-.282-4.32-.854zM41.55 14.441c.713-1.354 1.685-2.405 2.917-3.157 1.233-.752 2.592-1.126 4.084-1.126 1.345 0 2.52.269 3.523.806 1.006.541 1.805 1.211 2.408 2.014v-2.534h3.57v17.473h-3.57v-2.603c-.6.827-1.419 1.51-2.451 2.062-1.036.55-2.215.826-3.54.826a7.407 7.407 0 01-4.037-1.16c-1.222-.772-2.188-1.85-2.904-3.232-.713-1.384-1.072-2.956-1.072-4.708 0-1.752.36-3.31 1.072-4.661zm12.2 1.585c-.487-.888-1.123-1.565-1.909-2.027a4.907 4.907 0 00-2.544-.701 5.02 5.02 0 00-2.545.68c-.786.456-1.422 1.123-1.908 2-.486.879-.73 1.92-.73 3.124 0 1.204.244 2.262.73 3.17.486.909 1.129 1.6 1.925 2.08a4.844 4.844 0 002.53.71c.91 0 1.76-.231 2.545-.697.786-.466 1.422-1.15 1.909-2.048.486-.898.729-1.95.729-3.154-.003-1.204-.246-2.252-.733-3.137zm15.312-2.578h-3.217v14.754h-3.627V13.448H60.17V10.45h2.048V9.195c0-2.041.533-3.528 1.592-4.463 1.063-.933 2.731-1.399 5.002-1.399v3.059c-1.092 0-1.861.21-2.3.63-.444.418-.664 1.142-.664 2.173v1.255h3.218v2.998h-.004zm18.854 7.082H74.848c.103 1.395.61 2.518 1.522 3.362.909.847 2.028 1.269 3.353 1.269 1.906 0 3.248-.813 4.037-2.443h3.817c-.517 1.606-1.456 2.922-2.808 3.95-1.355 1.024-3.037 1.538-5.042 1.538-1.635 0-3.1-.378-4.393-1.126-1.292-.749-2.308-1.807-3.04-3.168-.737-1.364-1.103-2.942-1.103-4.739 0-1.8.356-3.378 1.072-4.742.713-1.364 1.719-2.412 3.011-3.154s2.778-1.109 4.456-1.109c1.615 0 3.05.357 4.316 1.078a7.508 7.508 0 012.948 3.028c.703 1.303 1.056 2.793 1.056 4.488a12.83 12.83 0 01-.134 1.769zm-3.57-2.918c-.02-1.33-.486-2.399-1.395-3.202-.913-.803-2.038-1.204-3.384-1.204-1.222 0-2.265.398-3.134 1.19-.87.793-1.385 1.865-1.552 3.22h9.465v-.004zm37.558-14.279l-7.208 24.835h-4.512l-5.106-18.796-5.422 18.796-4.48.034-6.89-24.869h4.233l5.04 20.226 5.454-20.226h4.48l5.072 20.12 5.072-20.12h4.267zm1.071 11.108c.713-1.354 1.685-2.405 2.918-3.157 1.232-.752 2.591-1.126 4.083-1.126 1.345 0 2.521.269 3.523.806 1.006.541 1.805 1.211 2.408 2.014v-2.534h3.571v17.473h-3.571v-2.603c-.599.827-1.418 1.51-2.451 2.062-1.036.55-2.215.826-3.54.826a7.41 7.41 0 01-4.037-1.16c-1.222-.772-2.188-1.85-2.904-3.232-.712-1.384-1.072-2.956-1.072-4.708 0-1.752.36-3.307 1.072-4.661zm12.2 1.585c-.487-.888-1.123-1.565-1.909-2.027a4.906 4.906 0 00-2.544-.701c-.909 0-1.759.228-2.545.68-.786.456-1.422 1.123-1.908 2-.486.879-.729 1.92-.729 3.124 0 1.204.243 2.262.729 3.17.486.909 1.129 1.6 1.925 2.08a4.845 4.845 0 002.531.71c.909 0 1.759-.231 2.545-.697.786-.466 1.422-1.15 1.908-2.048.486-.898.729-1.95.729-3.154-.003-1.2-.246-2.249-.732-3.137zm24.668-5.864L149.692 35h-3.837l2.798-6.831-7.057-18.007h4.129l5.043 13.955 5.238-13.955h3.837zM14.797 13.104H9.592v15.115l5.205-5.317v-9.798z" fill="#192738"/><path opacity=".7" d="M14.797 22.901H0v5.318h9.592l5.205-5.318z" fill="#F1B941"/><path d="M.383 18.445h5.205V3.333L.383 8.651v9.794z" fill="#192738"/><path opacity=".7" d="M.383 8.65H15.18V3.334H5.588L.383 8.651z" fill="#F1B941"/></svg>